<svg width="250" height="76" viewBox="0 0 250 76" fill="none" xmlns="http://www.w3.org/2000/svg">
<path d="M38.0016 5.21191C56.1391 5.21191 70.8235 19.8963 70.8235 37.999C70.8235 56.1016 56.1217 70.786 38.0016 70.786C19.8815 70.786 5.17969 56.119 5.17969 37.999C5.17969 19.8789 19.8815 5.21191 38.0016 5.21191Z" fill="white"/>
<path d="M30.1522 58.5618C25.9317 60.4802 20.7346 60.2535 13.375 58.7711C19.2348 65.9563 28.0943 70.5256 37.9827 70.5256C55.3006 70.5256 69.4443 56.4516 69.9152 38.9942C56.6609 28.2512 29.6116 25.5829 18.2059 38.5757C40.6336 33.8495 44.4006 52.109 30.1522 58.5618Z" fill="#00254B"/>
<path d="M52.9155 66.7765C58.7404 63.6373 63.5015 58.7192 66.4837 52.7373C59.1241 48.8134 48.4334 48.7262 43.4805 55.1266C53.2817 52.9292 56.229 61.2829 52.9155 66.7765Z" fill="white"/>
<path d="M38.0052 15.2925L39.7666 16.897L39.7841 14.5077L42.121 14.0019L40.2898 12.5021L41.406 10.357L39.0516 10.8453L37.9703 8.7002L36.9239 10.8453L34.6044 10.3395L35.6159 12.4847L33.7324 14.0368L36.0868 14.5251L36.0345 16.9144L38.0052 15.2925Z" fill="#F2DB2E"/>
<path d="M44.405 38.0691L45.1723 35.488L43.0098 33.9533L45.5909 33.8487L46.2885 31.5117L47.1256 33.7963L49.7939 33.6917L47.7534 35.3834L48.6254 37.8424L46.4803 36.4123L44.405 38.0691Z" fill="#F2DB2E"/>
<path d="M38.1753 65.6411L39.9367 67.2456L39.9541 64.8563L42.3085 64.3506L40.4773 62.8333L41.576 60.7056L39.2217 61.1939L38.1578 59.0488L37.1114 61.1939L34.7745 60.6882L35.8034 62.8333L33.9199 64.3854L36.2569 64.8738L36.222 67.263L38.1753 65.6411Z" fill="#F2DB2E"/>
<path d="M54.7806 25.1636L56.542 26.768V24.3962L58.8964 23.873L57.0652 22.3732L58.1639 20.2455L55.8095 20.7338L54.7457 18.5713L53.6993 20.7338L51.3624 20.2281L52.3913 22.3732L50.5078 23.9253L52.8622 24.3962L52.8099 26.7855L54.7806 25.1636Z" fill="#F2DB2E"/>
<path d="M21.4154 30.0112L23.1768 31.6157L23.1942 29.2264L25.5312 28.7207L23.7 27.2208L24.8161 25.0757L22.4618 25.5641L21.3805 23.4189L20.3341 25.5641L18.0146 25.0583L19.0261 27.2208L17.1426 28.7556L19.497 29.2439L19.4621 31.6331L21.4154 30.0112Z" fill="#F2DB2E"/>
<path d="M69.9572 38.7471C62.5627 32.8175 50.721 29.2598 39.7513 29.6434C30.4035 29.9922 22.6951 33.0965 18.0212 38.4157L17.5677 38.9389L18.2479 38.7994C30.4209 36.2357 36.4551 40.5434 37.9201 45.0254C39.5594 50.0307 36.3331 55.5068 30.0547 58.3495C26.183 60.111 21.2999 60.1458 13.2426 58.5239L13.0508 58.489L13.1729 58.646C13.2601 58.7506 13.3298 58.8378 13.417 58.9425L13.5217 59.0646H13.5391C17.2538 59.8145 20.3232 60.1807 22.9392 60.1807C25.8517 60.1807 28.2061 59.7273 30.2465 58.803C36.7342 55.8731 40.0826 50.1528 38.3561 44.9208C36.8737 40.3864 30.8744 35.9218 18.8408 38.2587C23.4624 33.3581 30.8918 30.4805 39.7687 30.1492C50.7384 29.7481 62.5452 33.3233 69.8526 39.2877L69.9572 39.3749V39.2354C69.9572 39.0959 69.9572 38.9738 69.9572 38.8343V38.7994L69.9223 38.7819L69.9572 38.7471Z" fill="#00254B"/>
<path d="M54.7479 49.7872C49.8299 49.9616 45.749 51.8102 43.3074 54.9843L42.9062 55.4901L43.5341 55.3505C49.7427 53.9553 52.8819 56.8853 53.7364 60.0768C54.3294 62.2916 53.8934 64.8378 52.568 66.8958L52.4284 67.1225L52.6726 67.0004C52.6726 67.0004 52.7947 66.9306 52.8644 66.8958C52.9691 66.8434 53.0912 66.7737 53.1958 66.7214H53.2132V66.6865C54.3817 64.6111 54.7479 62.0998 54.1724 59.9547C53.3004 56.6934 50.1961 53.6414 44.0747 54.7576C46.4814 52.0021 50.2659 50.3976 54.7654 50.2406C58.6719 50.1011 62.8924 51.0778 66.3804 52.9438L66.4501 52.9787L66.5373 52.8043C66.5373 52.8043 66.5897 52.6822 66.6245 52.6299L66.6594 52.5602L66.5897 52.5253C63.0319 50.6243 58.7242 49.6302 54.7479 49.7698V49.7872Z" fill="#00254B"/>
<path d="M35.8642 14.6996L35.8119 17.4027L38.0093 15.589L39.9974 17.4027V14.6996L42.6483 14.124L40.6078 12.4498L41.8461 10.0605L39.1952 10.6186L38.0093 8.21191L36.8408 10.6186L34.2248 10.0605L35.3759 12.4673L33.2656 14.2112L35.8991 14.7519L35.8642 14.6996ZM38.9162 11.1069L40.9741 10.6884L40.0149 12.5545L41.6193 13.8624L39.5614 14.3159V16.3564L38.0267 14.9786L36.3002 16.4087L36.3351 14.3333L34.2771 13.9148L35.9165 12.5545L35.0271 10.6709L37.0675 11.1069L37.9918 9.22343L38.9336 11.1069H38.9162Z" fill="#00254B"/>
<path d="M52.6181 24.5891L52.5658 27.2923L54.7632 25.4785L56.7513 27.2923V24.5891L59.4022 24.0136L57.3617 22.3393L58.6 19.9501L55.9491 20.4907L54.7632 18.084L53.5947 20.4907L50.9787 19.9326L52.1298 22.3393L50.0195 24.0833L52.653 24.624L52.6181 24.5891ZM55.6701 20.9964L57.728 20.5779L56.7688 22.444L58.3733 23.752L56.3153 24.2054V26.2459L54.7806 24.8681L53.0541 26.2982L53.089 24.2228L51.031 23.8043L52.6704 22.444L51.781 20.5605L53.8214 20.9964L54.7457 19.1129L55.6875 20.9964H55.6701Z" fill="#00254B"/>
<path d="M19.28 29.4193L19.2277 32.1225L21.4252 30.3087L23.4133 32.1225V29.4193L26.0467 28.8438L24.0063 27.1695L25.2445 24.7803L22.5936 25.3383L21.4077 22.9316L20.2392 25.3383L17.6233 24.7803L18.7743 27.187L16.6641 28.931L19.2975 29.4716L19.28 29.4193ZM22.332 25.8267L24.3899 25.4081L23.4307 27.2742L25.0352 28.5822L22.9773 29.0356V31.0761L21.4426 29.6983L19.716 31.1284L19.7509 29.0531L17.693 28.6345L19.3324 27.2742L18.4429 25.3907L20.4834 25.8267L21.4077 23.9432L22.3495 25.8267H22.332Z" fill="#00254B"/>
<path d="M47.3005 33.5521L46.2715 30.7617L45.4344 33.6219L42.3301 33.7439L44.9112 35.5751L43.9869 38.7143L46.4982 36.6913L49.0968 38.4178L48.0504 35.4531L50.492 33.43L47.3179 33.5521H47.3005ZM44.8414 37.4238L45.4169 35.4356V35.3833L43.6904 34.1451L45.7134 34.0753H45.7657L46.3064 32.2267L46.9691 34.023L49.1142 33.9358L47.5097 35.2612L47.4748 35.2961L48.1724 37.2494L46.4633 36.0983L44.8414 37.4063V37.4238Z" fill="#00254B"/>
<path d="M42.0158 60.3916L39.365 60.9497L38.1616 58.543L36.9931 60.9497L34.3772 60.3916L35.5282 62.7983L33.418 64.5423L36.0514 65.0829L35.9991 67.7861L38.1965 65.9724L40.1847 67.7861V65.0655L42.8355 64.49L40.7776 62.7983L42.0158 60.409V60.3916ZM39.801 64.6644H39.7487V66.7223L38.2663 65.3794L38.2139 65.3445L36.4874 66.7746L36.5223 64.6993L34.4644 64.2807L36.1037 62.9204L35.1968 61.0369L37.2373 61.4729L38.1616 59.5894L39.1034 61.4729L41.1613 61.0543L40.2021 62.9204L41.8066 64.2458L39.801 64.6818V64.6644Z" fill="#00254B"/>
<path d="M37.9985 0.350586C17.2101 0.350586 0.345703 17.215 0.345703 38.0034C0.345703 58.7917 17.2101 75.6561 37.9985 75.6561C58.7869 75.6561 75.6513 58.7917 75.6513 38.0034C75.6513 17.215 58.8043 0.350586 37.9985 0.350586ZM37.9985 69.3952C20.6632 69.3952 6.60663 55.3386 6.60663 38.0034C6.60663 20.6681 20.6632 6.61152 37.9985 6.61152C55.3338 6.61152 69.3903 20.6681 69.3903 38.0034C69.3903 55.3386 55.3338 69.3952 37.9985 69.3952Z" fill="#F2DB2E"/>
<path d="M38.0016 76.0031C17.0562 76.0031 0 58.9643 0 38.0016C0 17.0388 17.0562 0 38.0016 0C58.9469 0 76.0031 17.0562 76.0031 38.0016C76.0031 58.9469 58.9469 76.0031 38.0016 76.0031ZM38.0016 0.697596C17.4399 0.697596 0.697596 17.4399 0.697596 38.0016C0.697596 58.5632 17.4399 75.3055 38.0016 75.3055C58.5632 75.3055 75.3055 58.5632 75.3055 38.0016C75.3055 17.4399 58.5807 0.697596 38.0016 0.697596ZM38.0016 69.7422C20.4919 69.7422 6.26093 55.4938 6.26093 38.0016C6.26093 20.5093 20.4919 6.26093 38.0016 6.26093C55.5112 6.26093 69.7422 20.5093 69.7422 38.0016C69.7422 55.4938 55.4938 69.7422 38.0016 69.7422ZM38.0016 6.95853C20.893 6.95853 6.95853 20.893 6.95853 38.0016C6.95853 55.1101 20.893 69.0446 38.0016 69.0446C55.1101 69.0446 69.0446 55.1101 69.0446 38.0016C69.0446 20.893 55.1276 6.95853 38.0016 6.95853Z" fill="#00254B"/>
<path d="M198.258 32.2287V35.8213H188.004V39.9895H197.421V43.303H188.004V48.0641H198.485V51.6568H183.731V32.2287H198.258ZM174.558 32.2287C175.43 32.2287 176.214 32.3682 176.912 32.6472C177.61 32.9263 178.203 33.31 178.708 33.7983C179.214 34.2866 179.58 34.8621 179.859 35.5074C180.121 36.1527 180.26 36.8503 180.26 37.5827C180.26 38.7163 180.016 39.7104 179.545 40.5475C179.057 41.3846 178.272 42.0125 177.191 42.4485V42.5008C177.714 42.6403 178.15 42.867 178.499 43.1635C178.848 43.46 179.127 43.8088 179.336 44.2274C179.545 44.6285 179.72 45.0819 179.807 45.5702C179.912 46.0585 179.981 46.5469 180.016 47.0352C180.034 47.3491 180.051 47.6979 180.069 48.1164C180.086 48.535 180.121 48.9536 180.156 49.3896C180.208 49.8256 180.278 50.2441 180.365 50.6278C180.47 51.0115 180.609 51.3428 180.819 51.6219H176.546C176.302 51.0115 176.162 50.279 176.11 49.4244C176.057 48.5699 175.97 47.7502 175.866 46.9829C175.726 45.9713 175.412 45.2214 174.941 44.7505C174.47 44.2797 173.703 44.0355 172.622 44.0355H168.349V51.6219H164.076V32.1938H174.558V32.2287ZM173.04 41.0184C174.017 41.0184 174.749 40.8091 175.238 40.3731C175.726 39.9371 175.97 39.2395 175.97 38.2455C175.97 37.2514 175.726 36.6235 175.238 36.1876C174.749 35.769 174.017 35.5423 173.04 35.5423H168.366V41.0184H173.04ZM145.939 35.8213V32.2287H161.861V35.8213H156.036V51.6568H151.764V35.8213H145.939ZM131.551 32.2287L139.66 45.2563H139.713V32.2287H143.706V51.6568H139.434L131.359 38.6466H131.307V51.6568H127.313V32.2287H131.551ZM124.209 32.2287V35.8213H113.954V39.9895H123.371V43.303H113.954V48.0641H124.435V51.6568H109.681V32.2287H124.209ZM101.973 37.4083C101.711 37.0072 101.397 36.641 101.013 36.3271C100.63 36.0132 100.194 35.7864 99.7229 35.612C99.2346 35.4376 98.7463 35.3504 98.2057 35.3504C97.2465 35.3504 96.4268 35.5423 95.7641 35.9085C95.1013 36.2748 94.5433 36.7805 94.1247 37.4083C93.7062 38.0362 93.4097 38.7512 93.2178 39.536C93.026 40.3383 92.9388 41.1579 92.9388 42.0125C92.9388 42.867 93.026 43.617 93.2178 44.3843C93.4097 45.1517 93.7062 45.8493 94.1247 46.4597C94.5433 47.0701 95.0839 47.5758 95.7641 47.9421C96.4268 48.3083 97.2465 48.5001 98.2057 48.5001C99.5136 48.5001 100.525 48.099 101.275 47.2968C102.008 46.4945 102.461 45.4481 102.618 44.1401H106.751C106.647 45.3609 106.368 46.4597 105.914 47.4363C105.461 48.4129 104.868 49.25 104.118 49.9476C103.368 50.6452 102.496 51.1684 101.502 51.5172C100.508 51.8835 99.409 52.0579 98.2057 52.0579C96.7233 52.0579 95.3804 51.7963 94.1945 51.2905C93.0086 50.7673 91.997 50.0697 91.1948 49.1628C90.3751 48.256 89.7473 47.1921 89.3113 45.9713C88.8753 44.7505 88.666 43.4251 88.666 42.0125C88.666 40.5998 88.8753 39.2221 89.3113 37.9664C89.7473 36.7282 90.3751 35.6469 91.1948 34.7226C92.0145 33.7983 93.0086 33.0658 94.1945 32.5426C95.3804 32.0194 96.7233 31.7578 98.2057 31.7578C99.2695 31.7578 100.281 31.9148 101.24 32.2113C102.199 32.5252 103.037 32.9612 103.804 33.5541C104.554 34.1471 105.182 34.8796 105.67 35.7516C106.158 36.6235 106.472 37.6176 106.594 38.7512H102.461C102.391 38.2629 102.217 37.8095 101.973 37.4083Z" fill="#00254B"/>
<path d="M243.738 7.93586C244.61 7.93586 245.395 8.07538 246.092 8.35442C246.79 8.63346 247.383 9.01713 247.889 9.50545C248.394 9.99377 248.761 10.5693 249.04 11.1971C249.301 11.8424 249.441 12.54 249.441 13.2725C249.441 14.4235 249.197 15.4001 248.726 16.2373C248.238 17.0744 247.453 17.7022 246.371 18.1382V18.1905C246.895 18.33 247.331 18.5568 247.679 18.8532C248.028 19.1497 248.307 19.4985 248.517 19.9171C248.726 20.3182 248.9 20.7716 248.987 21.26C249.092 21.7483 249.162 22.2366 249.197 22.7249C249.214 23.0388 249.232 23.4051 249.249 23.8062C249.266 24.2247 249.301 24.6433 249.336 25.0793C249.389 25.5153 249.458 25.9338 249.546 26.3175C249.65 26.7012 249.79 27.0326 249.999 27.3116H245.726C245.482 26.7012 245.342 25.9687 245.29 25.1142C245.238 24.2596 245.151 23.4399 245.046 22.6726C244.906 21.6611 244.593 20.9112 244.122 20.4403C243.651 19.9694 242.883 19.7252 241.802 19.7252H237.529V27.3116H233.257V7.93586H243.738ZM242.221 16.7256C243.197 16.7256 243.93 16.5163 244.418 16.0803C244.906 15.6443 245.151 14.9293 245.151 13.9526C245.151 12.976 244.906 12.3307 244.418 11.8947C243.93 11.4762 243.197 11.2494 242.221 11.2494H237.547V16.7256H242.221ZM230.17 7.93586V11.5285H219.915V15.6966H229.333V19.0102H219.915V23.7713H230.396V27.3639H215.642V7.93586H230.17ZM204.219 27.3639L200.923 14.1445H200.871L197.627 27.3639H193.302L188.157 7.93586H192.43L195.499 21.1553H195.552L198.917 7.93586H202.911L206.225 21.3297H206.277L209.469 7.93586H213.654L208.422 27.3639H204.184H204.219ZM168.607 13.691C169.043 12.4528 169.671 11.3715 170.49 10.4472C171.31 9.52289 172.304 8.79041 173.49 8.26722C174.676 7.74402 176.019 7.48242 177.501 7.48242C178.984 7.48242 180.344 7.74402 181.53 8.26722C182.716 8.79041 183.71 9.52289 184.53 10.4472C185.349 11.3715 185.977 12.4528 186.413 13.691C186.849 14.9293 187.058 16.2721 187.058 17.7371C187.058 19.202 186.849 20.4752 186.413 21.6959C185.977 22.9167 185.349 23.9806 184.53 24.8875C183.71 25.7943 182.716 26.5094 181.53 27.0151C180.344 27.5383 179.001 27.7825 177.501 27.7825C176.001 27.7825 174.676 27.5209 173.49 27.0151C172.304 26.4919 171.293 25.7943 170.49 24.8875C169.671 23.9806 169.043 22.9167 168.607 21.6959C168.171 20.4752 167.962 19.1497 167.962 17.7371C167.962 16.3245 168.188 14.9467 168.607 13.691ZM172.513 20.1089C172.705 20.8763 173.002 21.5739 173.42 22.1843C173.839 22.7947 174.379 23.3004 175.06 23.6667C175.722 24.0329 176.542 24.2247 177.501 24.2247C178.46 24.2247 179.28 24.0329 179.943 23.6667C180.606 23.3004 181.164 22.7947 181.582 22.1843C182.001 21.5739 182.297 20.8763 182.489 20.1089C182.681 19.3416 182.768 18.5393 182.768 17.7371C182.768 16.9349 182.681 16.0629 182.489 15.2606C182.297 14.4584 182.001 13.7434 181.582 13.133C181.164 12.5051 180.623 12.0168 179.943 11.6331C179.263 11.2669 178.46 11.075 177.501 11.075C176.542 11.075 175.722 11.2669 175.06 11.6331C174.397 11.9994 173.839 12.5051 173.42 13.133C173.002 13.7608 172.705 14.4758 172.513 15.2606C172.322 16.0629 172.234 16.8825 172.234 17.7371C172.234 18.5916 172.322 19.3416 172.513 20.1089ZM159.416 7.93586C160.637 7.93586 161.666 8.11026 162.52 8.45906C163.375 8.80786 164.072 9.27873 164.596 9.85425C165.136 10.4298 165.52 11.0925 165.764 11.8424C166.008 12.5923 166.13 13.3597 166.13 14.1619C166.13 14.9641 166.008 15.7141 165.764 16.464C165.52 17.2139 165.136 17.8766 164.596 18.4696C164.055 19.0451 163.375 19.516 162.52 19.8648C161.666 20.2136 160.637 20.388 159.416 20.388H154.934V27.3465H150.661V7.93586H159.416ZM158.248 17.0744C158.736 17.0744 159.207 17.0395 159.66 16.9697C160.114 16.9 160.515 16.7605 160.864 16.5512C161.212 16.3419 161.491 16.0454 161.701 15.6617C161.91 15.2781 162.015 14.7897 162.015 14.1619C162.015 13.5341 161.91 13.0458 161.701 12.6621C161.491 12.2784 161.212 11.9819 160.864 11.7726C160.515 11.5634 160.114 11.4238 159.66 11.3541C159.207 11.2843 158.736 11.2494 158.248 11.2494H154.934V17.0744H158.248ZM134.494 7.93586L141.767 27.3639H137.337L135.872 23.0388H128.617L127.1 27.3639H122.81L130.152 7.93586H134.529H134.494ZM134.739 19.8473L132.297 12.7144H132.245L129.716 19.8473H134.756H134.739ZM121.711 7.93586V11.5285H111.456V15.6966H120.874V19.0102H111.456V23.7713H121.938V27.3639H107.183V7.93586H121.711ZM92.7956 22.5679C93.0223 23.0214 93.3362 23.3876 93.7373 23.6667C94.121 23.9457 94.5919 24.155 95.1151 24.2945C95.6383 24.434 96.1789 24.5038 96.7544 24.5038C97.1381 24.5038 97.5392 24.4689 97.9752 24.4166C98.4112 24.3468 98.8123 24.2247 99.196 24.0503C99.5797 23.8759 99.8936 23.6143 100.155 23.3004C100.417 22.9865 100.539 22.5854 100.539 22.0971C100.539 21.5739 100.364 21.1379 100.033 20.824C99.7018 20.4926 99.2658 20.231 98.7077 20.0043C98.1671 19.795 97.5392 19.6032 96.8591 19.4288C96.1615 19.2718 95.4639 19.08 94.7663 18.8881C94.0338 18.7137 93.3362 18.487 92.6386 18.2254C91.941 17.9638 91.3306 17.615 90.79 17.1965C90.2493 16.7779 89.8133 16.2547 89.4645 15.6269C89.1332 14.999 88.9588 14.2491 88.9588 13.3597C88.9588 12.3656 89.1681 11.4936 89.6041 10.7611C90.0226 10.0286 90.5807 9.41825 91.2783 8.92993C91.9759 8.44162 92.7432 8.07538 93.6152 7.84866C94.4872 7.6045 95.3592 7.49986 96.2312 7.49986C97.2427 7.49986 98.2194 7.62194 99.1611 7.84866C100.103 8.07538 100.923 8.44162 101.655 8.94737C102.388 9.45313 102.963 10.0984 103.382 10.9006C103.8 11.6854 104.027 12.6446 104.027 13.7782H99.8936C99.8587 13.2027 99.7366 12.7144 99.5274 12.3307C99.3181 11.947 99.0391 11.6506 98.6903 11.4413C98.3415 11.232 97.9578 11.075 97.5043 10.9704C97.0683 10.8832 96.58 10.8309 96.0568 10.8309C95.708 10.8309 95.3592 10.8658 95.0279 10.9355C94.6791 11.0053 94.3652 11.1274 94.0861 11.3192C93.8071 11.4936 93.5804 11.7203 93.3885 11.9994C93.2141 12.2784 93.1095 12.6098 93.1095 13.0283C93.1095 13.412 93.1792 13.7259 93.3188 13.9526C93.4583 14.1968 93.7548 14.4061 94.1733 14.5979C94.5919 14.7897 95.1848 14.999 95.9347 15.1909C96.6847 15.3827 97.6787 15.6443 98.8821 15.9582C99.2483 16.028 99.7541 16.1675 100.399 16.3593C101.045 16.5512 101.69 16.8477 102.318 17.2662C102.946 17.6848 103.504 18.2428 103.957 18.9404C104.428 19.638 104.655 20.5275 104.655 21.6262C104.655 22.5156 104.48 23.3353 104.132 24.1027C103.783 24.87 103.277 25.5153 102.597 26.0734C101.917 26.6314 101.08 27.05 100.068 27.3639C99.0565 27.6778 97.888 27.8348 96.58 27.8348C95.5162 27.8348 94.4698 27.6953 93.4583 27.4337C92.4468 27.1721 91.5573 26.7535 90.79 26.1954C90.0226 25.6374 89.4122 24.9223 88.9588 24.0503C88.5053 23.1783 88.2961 22.1494 88.3135 20.946H92.4468C92.4468 21.5913 92.5688 22.1494 92.7956 22.6028" fill="#00254B"/>
<path d="M223.84 60.3775H223.874L225.217 64.2492H222.462L223.822 60.3775H223.84ZM219.567 67.8418H221.189L222.043 65.4525H225.636L226.49 67.8418H228.182L224.712 58.8254H223.037L219.584 67.8418H219.567ZM208.266 67.8418H209.853V58.8254H208.266V67.8418ZM192.169 67.8418H198.325V66.4815H193.738V58.8254H192.151V67.8418H192.169ZM178.129 60.3775H178.164L179.507 64.2492H176.752L178.112 60.3775H178.129ZM173.857 67.8418H175.479L176.333 65.4525H179.926L180.78 67.8418H182.472L179.001 58.8254H177.327L173.874 67.8418H173.857ZM158.754 60.1159H161.317C161.527 60.1159 161.719 60.1333 161.91 60.1682C162.102 60.2031 162.277 60.2729 162.416 60.3775C162.556 60.4821 162.678 60.6217 162.765 60.7961C162.852 60.9705 162.887 61.2146 162.887 61.4937C162.887 61.982 162.765 62.3308 162.503 62.5749C162.242 62.8191 161.858 62.9412 161.352 62.9412H158.771V60.1159H158.754ZM157.167 67.8418H158.754V64.1271H161.073C161.44 64.1271 161.736 64.1794 161.963 64.2666C162.189 64.3538 162.381 64.5108 162.503 64.7026C162.643 64.8944 162.73 65.156 162.782 65.4525C162.835 65.749 162.852 66.1152 162.852 66.5164C162.852 66.7431 162.852 66.9698 162.887 67.1965C162.904 67.4407 162.974 67.65 163.096 67.8418H164.788C164.614 67.65 164.491 67.3535 164.422 66.9175C164.335 66.4815 164.3 65.9932 164.3 65.47C164.3 65.1212 164.247 64.8247 164.16 64.5805C164.073 64.3538 163.968 64.162 163.829 64.005C163.689 63.8655 163.55 63.7434 163.393 63.6911C163.236 63.6213 163.096 63.5865 162.957 63.569C162.957 63.569 163.149 63.4644 163.323 63.3946C163.48 63.3248 163.654 63.2028 163.829 63.0284C164.003 62.854 164.143 62.6273 164.265 62.3482C164.387 62.0692 164.457 61.7029 164.457 61.2844C164.457 60.517 164.212 59.9241 163.707 59.4881C163.218 59.0521 162.468 58.8428 161.474 58.8428H157.167V67.8592V67.8418ZM139.971 60.1857H142.831V67.8418H144.418V60.1857H147.278V58.8254H139.971V60.1857ZM123.264 64.8421C123.264 65.4002 123.386 65.8885 123.577 66.2896C123.787 66.6908 124.048 67.0396 124.38 67.3012C124.711 67.5627 125.112 67.7546 125.566 67.8767C126.019 67.9987 126.507 68.0685 127.013 68.0685C127.467 68.0685 127.903 68.0162 128.321 67.9115C128.757 67.8069 129.141 67.6325 129.472 67.4058C129.804 67.1791 130.083 66.8826 130.292 66.5338C130.501 66.1676 130.606 65.749 130.606 65.2432C130.606 65.0165 130.571 64.7724 130.501 64.5282C130.431 64.284 130.327 64.0748 130.17 63.8655C130.03 63.6562 129.838 63.4818 129.612 63.3074C129.385 63.1505 129.141 63.0284 128.844 62.9237C128.722 62.8889 128.53 62.8365 128.251 62.7668C127.972 62.697 127.693 62.6273 127.414 62.5401C127.135 62.4703 126.874 62.4005 126.629 62.3308C126.403 62.261 126.263 62.2261 126.228 62.2261C125.914 62.1389 125.653 61.9994 125.444 61.8076C125.252 61.6332 125.147 61.3716 125.147 61.0577C125.147 60.8309 125.199 60.6391 125.304 60.4821C125.409 60.3252 125.548 60.2031 125.705 60.1159C125.862 60.0287 126.036 59.9589 126.228 59.9241C126.42 59.8892 126.612 59.8718 126.804 59.8718C127.344 59.8718 127.798 59.9938 128.147 60.238C128.496 60.4821 128.705 60.8833 128.74 61.4762H130.327C130.327 61.0053 130.24 60.5868 130.048 60.238C129.856 59.8718 129.612 59.5753 129.298 59.3311C128.984 59.087 128.618 58.9126 128.199 58.7905C127.78 58.6684 127.344 58.5986 126.874 58.5986C126.472 58.5986 126.071 58.651 125.67 58.7556C125.269 58.8602 124.92 59.0172 124.606 59.2439C124.292 59.4706 124.048 59.7322 123.856 60.0636C123.665 60.3949 123.577 60.7961 123.577 61.2495C123.577 61.4937 123.612 61.7204 123.665 61.9471C123.734 62.1738 123.839 62.3831 123.979 62.5924C124.136 62.8017 124.327 62.9761 124.589 63.1505C124.851 63.3074 125.164 63.4469 125.548 63.5516C126.176 63.726 126.699 63.8655 127.118 63.9701C127.536 64.0748 127.92 64.1794 128.234 64.3015C128.426 64.3712 128.583 64.4933 128.74 64.6503C128.897 64.8072 128.966 65.0688 128.966 65.4176C128.966 65.592 128.932 65.749 128.862 65.9234C128.792 66.0804 128.687 66.2373 128.53 66.3594C128.373 66.4815 128.182 66.5861 127.937 66.6733C127.693 66.7605 127.397 66.7954 127.048 66.7954C126.734 66.7954 126.438 66.7605 126.159 66.6908C125.88 66.621 125.635 66.4989 125.426 66.342C125.217 66.185 125.06 65.9932 124.938 65.749C124.816 65.5048 124.763 65.2084 124.763 64.8596H123.176L123.264 64.8421ZM105.736 64.598C105.736 65.1735 105.824 65.6792 105.998 66.1152C106.172 66.5512 106.434 66.9 106.748 67.1965C107.079 67.493 107.463 67.7023 107.916 67.8418C108.37 67.9813 108.876 68.0511 109.434 68.0511C109.992 68.0511 110.498 67.9813 110.951 67.8418C111.404 67.7023 111.788 67.4755 112.119 67.1965C112.451 66.9 112.695 66.5512 112.869 66.1152C113.044 65.6792 113.131 65.1735 113.131 64.598V58.8254H111.544V64.0748C111.544 64.3712 111.544 64.6852 111.492 64.9991C111.457 65.313 111.37 65.592 111.247 65.8362C111.108 66.0804 110.899 66.2896 110.62 66.4466C110.341 66.6036 109.939 66.6908 109.434 66.6908C108.928 66.6908 108.527 66.6036 108.248 66.4466C107.969 66.2896 107.759 66.0804 107.62 65.8362C107.48 65.592 107.393 65.313 107.376 64.9991C107.341 64.6852 107.323 64.3887 107.323 64.0748V58.8254H105.736V64.598ZM91.7845 60.3775H91.8194L93.1622 64.2492H90.4067L91.7671 60.3775H91.7845ZM87.5117 67.8418H89.1336L89.9882 65.4525H93.5808L94.4354 67.8418H96.127L92.6565 58.8254H90.9823L87.5292 67.8418H87.5117Z" fill="#00254B"/>
</svg>
